{
    "asset": {
        "generator": "FBX2glTF v0.13.1",
        "version": "2.0"
    },
    "scene": 0,
    "buffers": [
        {
            "byteLength": 83760,
            "uri": "buffer.bin"
        }
    ],
    "bufferViews": [
        {
            "buffer": 0,
            "byteLength": 1500,
            "byteOffset": 0,
            "target": 34963
        },
        {
            "buffer": 0,
            "byteLength": 5040,
            "byteOffset": 1500,
            "target": 34962
        },
        {
            "buffer": 0,
            "byteLength": 5040,
            "byteOffset": 6540,
            "target": 34962
        },
        {
            "buffer": 0,
            "byteLength": 6720,
            "byteOffset": 11580,
            "target": 34962
        },
        {
            "buffer": 0,
            "byteLength": 3360,
            "byteOffset": 18300,
            "target": 34962
        },
        {
            "buffer": 0,
            "byteLength": 2688,
            "byteOffset": 21660,
            "target": 34963
        },
        {
            "buffer": 0,
            "byteLength": 4368,
            "byteOffset": 24348,
            "target": 34962
        },
        {
            "buffer": 0,
            "byteLength": 4368,
            "byteOffset": 28716,
            "target": 34962
        },
        {
            "buffer": 0,
            "byteLength": 5824,
            "byteOffset": 33084,
            "target": 34962
        },
        {
            "buffer": 0,
            "byteLength": 2912,
            "byteOffset": 38908,
            "target": 34962
        },
        {
            "buffer": 0,
            "byteLength": 1152,
            "byteOffset": 41820,
            "target": 34963
        },
        {
            "buffer": 0,
            "byteLength": 2256,
            "byteOffset": 42972,
            "target": 34962
        },
        {
            "buffer": 0,
            "byteLength": 2256,
            "byteOffset": 45228,
            "target": 34962
        },
        {
            "buffer": 0,
            "byteLength": 3008,
            "byteOffset": 47484,
            "target": 34962
        },
        {
            "buffer": 0,
            "byteLength": 1504,
            "byteOffset": 50492,
            "target": 34962
        },
        {
            "buffer": 0,
            "byteLength": 576,
            "byteOffset": 51996,
            "target": 34963
        },
        {
            "buffer": 0,
            "byteLength": 1296,
            "byteOffset": 52572,
            "target": 34962
        },
        {
            "buffer": 0,
            "byteLength": 1296,
            "byteOffset": 53868,
            "target": 34962
        },
        {
            "buffer": 0,
            "byteLength": 1728,
            "byteOffset": 55164,
            "target": 34962
        },
        {
            "buffer": 0,
            "byteLength": 864,
            "byteOffset": 56892,
            "target": 34962
        },
        {
            "buffer": 0,
            "byteLength": 1380,
            "byteOffset": 57756,
            "target": 34963
        },
        {
            "buffer": 0,
            "byteLength": 2868,
            "byteOffset": 59136,
            "target": 34962
        },
        {
            "buffer": 0,
            "byteLength": 2868,
            "byteOffset": 62004,
            "target": 34962
        },
        {
            "buffer": 0,
            "byteLength": 3824,
            "byteOffset": 64872,
            "target": 34962
        },
        {
            "buffer": 0,
            "byteLength": 1912,
            "byteOffset": 68696,
            "target": 34962
        },
        {
            "buffer": 0,
            "byteLength": 864,
            "byteOffset": 70608,
            "target": 34963
        },
        {
            "buffer": 0,
            "byteLength": 2016,
            "byteOffset": 71472,
            "target": 34962
        },
        {
            "buffer": 0,
            "byteLength": 2016,
            "byteOffset": 73488,
            "target": 34962
        },
        {
            "buffer": 0,
            "byteLength": 2688,
            "byteOffset": 75504,
            "target": 34962
        },
        {
            "buffer": 0,
            "byteLength": 1344,
            "byteOffset": 78192,
            "target": 34962
        },
        {
            "buffer": 0,
            "byteLength": 192,
            "byteOffset": 79536,
            "target": 34963
        },
        {
            "buffer": 0,
            "byteLength": 480,
            "byteOffset": 79728,
            "target": 34962
        },
        {
            "buffer": 0,
            "byteLength": 480,
            "byteOffset": 80208,
            "target": 34962
        },
        {
            "buffer": 0,
            "byteLength": 640,
            "byteOffset": 80688,
            "target": 34962
        },
        {
            "buffer": 0,
            "byteLength": 320,
            "byteOffset": 81328,
            "target": 34962
        },
        {
            "buffer": 0,
            "byteLength": 192,
            "byteOffset": 81648,
            "target": 34963
        },
        {
            "buffer": 0,
            "byteLength": 480,
            "byteOffset": 81840,
            "target": 34962
        },
        {
            "buffer": 0,
            "byteLength": 480,
            "byteOffset": 82320,
            "target": 34962
        },
        {
            "buffer": 0,
            "byteLength": 640,
            "byteOffset": 82800,
            "target": 34962
        },
        {
            "buffer": 0,
            "byteLength": 320,
            "byteOffset": 83440,
            "target": 34962
        }
    ],
    "scenes": [
        {
            "name": "Root Scene",
            "nodes": [
                0
            ]
        }
    ],
    "accessors": [
        {
            "componentType": 5123,
            "type": "SCALAR",
            "count": 750,
            "bufferView": 0,
            "byteOffset": 0
        },
        {
            "componentType": 5126,
            "type": "VEC3",
            "count": 420,
            "bufferView": 1,
            "byteOffset": 0,
            "min": [
                -0.225406929850578,
                -0.199999988079071,
                1.90734859017994e-08
            ],
            "max": [
                0.0067529296502471,
                0.199999988079071,
                0.399999976158142
            ]
        },
        {
            "componentType": 5126,
            "type": "VEC3",
            "count": 420,
            "bufferView": 2,
            "byteOffset": 0
        },
        {
            "componentType": 5126,
            "type": "VEC4",
            "count": 420,
            "bufferView": 3,
            "byteOffset": 0
        },
        {
            "componentType": 5126,
            "type": "VEC2",
            "count": 420,
            "bufferView": 4,
            "byteOffset": 0
        },
        {
            "componentType": 5123,
            "type": "SCALAR",
            "count": 1344,
            "bufferView": 5,
            "byteOffset": 0
        },
        {
            "componentType": 5126,
            "type": "VEC3",
            "count": 364,
            "bufferView": 6,
            "byteOffset": 0,
            "min": [
                -0.107481837272644,
                0.133757531642914,
                0.0464812442660332
            ],
            "max": [
                -0.102352924644947,
                0.348020225763321,
                0.177729442715645
            ]
        },
        {
            "componentType": 5126,
            "type": "VEC3",
            "count": 364,
            "bufferView": 7,
            "byteOffset": 0
        },
        {
            "componentType": 5126,
            "type": "VEC4",
            "count": 364,
            "bufferView": 8,
            "byteOffset": 0
        },
        {
            "componentType": 5126,
            "type": "VEC2",
            "count": 364,
            "bufferView": 9,
            "byteOffset": 0
        },
        {
            "componentType": 5123,
            "type": "SCALAR",
            "count": 576,
            "bufferView": 10,
            "byteOffset": 0
        },
        {
            "componentType": 5126,
            "type": "VEC3",
            "count": 188,
            "bufferView": 11,
            "byteOffset": 0,
            "min": [
                -0.0990754887461662,
                -0.0518077313899994,
                -0.12378066778183
            ],
            "max": [
                0.0990754663944244,
                0.0518077351152897,
                0.123780697584152
            ]
        },
        {
            "componentType": 5126,
            "type": "VEC3",
            "count": 188,
            "bufferView": 12,
            "byteOffset": 0
        },
        {
            "componentType": 5126,
            "type": "VEC4",
            "count": 188,
            "bufferView": 13,
            "byteOffset": 0
        },
        {
            "componentType": 5126,
            "type": "VEC2",
            "count": 188,
            "bufferView": 14,
            "byteOffset": 0
        },
        {
            "componentType": 5123,
            "type": "SCALAR",
            "count": 288,
            "bufferView": 15,
            "byteOffset": 0
        },
        {
            "componentType": 5126,
            "type": "VEC3",
            "count": 108,
            "bufferView": 16,
            "byteOffset": 0,
            "min": [
                -0.25651627779007,
                -0.0685281008481979,
                -0.01239999756217
            ],
            "max": [
                0.256516307592392,
                0.0685280859470367,
                0.0124000068753958
            ]
        },
        {
            "componentType": 5126,
            "type": "VEC3",
            "count": 108,
            "bufferView": 17,
            "byteOffset": 0
        },
        {
            "componentType": 5126,
            "type": "VEC4",
            "count": 108,
            "bufferView": 18,
            "byteOffset": 0
        },
        {
            "componentType": 5126,
            "type": "VEC2",
            "count": 108,
            "bufferView": 19,
            "byteOffset": 0
        },
        {
            "componentType": 5123,
            "type": "SCALAR",
            "count": 690,
            "bufferView": 20,
            "byteOffset": 0
        },
        {
            "componentType": 5126,
            "type": "VEC3",
            "count": 239,
            "bufferView": 21,
            "byteOffset": 0,
            "min": [
                -0.046973180025816,
                -0.0469731688499451,
                -0.00606566434726119
            ],
            "max": [
                0.046973180025816,
                0.0469731688499451,
                0.00606565922498703
            ]
        },
        {
            "componentType": 5126,
            "type": "VEC3",
            "count": 239,
            "bufferView": 22,
            "byteOffset": 0
        },
        {
            "componentType": 5126,
            "type": "VEC4",
            "count": 239,
            "bufferView": 23,
            "byteOffset": 0
        },
        {
            "componentType": 5126,
            "type": "VEC2",
            "count": 239,
            "bufferView": 24,
            "byteOffset": 0
        },
        {
            "componentType": 5123,
            "type": "SCALAR",
            "count": 432,
            "bufferView": 25,
            "byteOffset": 0
        },
        {
            "componentType": 5126,
            "type": "VEC3",
            "count": 168,
            "bufferView": 26,
            "byteOffset": 0,
            "min": [
                -0.00230659474618733,
                -0.00230106338858604,
                -0.000134897229145281
            ],
            "max": [
                0.0300242267549038,
                0.00230112066492438,
                0.000134897229145281
            ]
        },
        {
            "componentType": 5126,
            "type": "VEC3",
            "count": 168,
            "bufferView": 27,
            "byteOffset": 0
        },
        {
            "componentType": 5126,
            "type": "VEC4",
            "count": 168,
            "bufferView": 28,
            "byteOffset": 0
        },
        {
            "componentType": 5126,
            "type": "VEC2",
            "count": 168,
            "bufferView": 29,
            "byteOffset": 0
        },
        {
            "componentType": 5123,
            "type": "SCALAR",
            "count": 96,
            "bufferView": 30,
            "byteOffset": 0
        },
        {
            "componentType": 5126,
            "type": "VEC3",
            "count": 40,
            "bufferView": 31,
            "byteOffset": 0,
            "min": [
                -0.0167459826916456,
                -0.257315635681152,
                -0.35664114356041
            ],
            "max": [
                0.026769332587719,
                -0.0567114278674126,
                -0.313125789165497
            ]
        },
        {
            "componentType": 5126,
            "type": "VEC3",
            "count": 40,
            "bufferView": 32,
            "byteOffset": 0
        },
        {
            "componentType": 5126,
            "type": "VEC4",
            "count": 40,
            "bufferView": 33,
            "byteOffset": 0
        },
        {
            "componentType": 5126,
            "type": "VEC2",
            "count": 40,
            "bufferView": 34,
            "byteOffset": 0
        },
        {
            "componentType": 5123,
            "type": "SCALAR",
            "count": 96,
            "bufferView": 35,
            "byteOffset": 0
        },
        {
            "componentType": 5126,
            "type": "VEC3",
            "count": 40,
            "bufferView": 36,
            "byteOffset": 0,
            "min": [
                -0.0167459826916456,
                -0.257315635681152,
                -0.303662300109863
            ],
            "max": [
                0.026769332587719,
                -0.0567114278674126,
                -0.260146886110306
            ]
        },
        {
            "componentType": 5126,
            "type": "VEC3",
            "count": 40,
            "bufferView": 37,
            "byteOffset": 0
        },
        {
            "componentType": 5126,
            "type": "VEC4",
            "count": 40,
            "bufferView": 38,
            "byteOffset": 0
        },
        {
            "componentType": 5126,
            "type": "VEC2",
            "count": 40,
            "bufferView": 39,
            "byteOffset": 0
        }
    ],
    "samplers": [
        {}
    ],
    "materials": [
        {
            "name": "DefaultMaterial",
            "alphaMode": "OPAQUE",
            "doubleSided": false,
            "extras": {
                "fromFBX": {
                    "shadingModel": "Lambert",
                    "isTruePBR": false
                }
            },
            "pbrMetallicRoughness": {
                "baseColorFactor": [
                    0.5,
                    0.5,
                    0.5,
                    1.0
                ],
                "metallicFactor": 0.200000002980232,
                "roughnessFactor": 0.800000011920929
            }
        }
    ],
    "meshes": [
        {
            "name": "Box001",
            "primitives": [
                {
                    "material": 0,
                    "mode": 4,
                    "attributes": {
                        "NORMAL": 2,
                        "POSITION": 1,
                        "TANGENT": 3,
                        "TEXCOORD_0": 4
                    },
                    "indices": 0
                }
            ]
        },
        {
            "name": "Sphere001",
            "primitives": [
                {
                    "material": 0,
                    "mode": 4,
                    "attributes": {
                        "NORMAL": 7,
                        "POSITION": 6,
                        "TANGENT": 8,
                        "TEXCOORD_0": 9
                    },
                    "indices": 5
                }
            ]
        },
        {
            "name": "Rectangle001",
            "primitives": [
                {
                    "material": 0,
                    "mode": 4,
                    "attributes": {
                        "NORMAL": 12,
                        "POSITION": 11,
                        "TANGENT": 13,
                        "TEXCOORD_0": 14
                    },
                    "indices": 10
                }
            ]
        },
        {
            "name": "Rectangle002",
            "primitives": [
                {
                    "material": 0,
                    "mode": 4,
                    "attributes": {
                        "NORMAL": 17,
                        "POSITION": 16,
                        "TANGENT": 18,
                        "TEXCOORD_0": 19
                    },
                    "indices": 15
                }
            ]
        },
        {
            "name": "Cylinder001",
            "primitives": [
                {
                    "material": 0,
                    "mode": 4,
                    "attributes": {
                        "NORMAL": 22,
                        "POSITION": 21,
                        "TANGENT": 23,
                        "TEXCOORD_0": 24
                    },
                    "indices": 20
                }
            ]
        },
        {
            "name": "Object001",
            "primitives": [
                {
                    "material": 0,
                    "mode": 4,
                    "attributes": {
                        "NORMAL": 27,
                        "POSITION": 26,
                        "TANGENT": 28,
                        "TEXCOORD_0": 29
                    },
                    "indices": 25
                }
            ]
        },
        {
            "name": "Object002",
            "primitives": [
                {
                    "material": 0,
                    "mode": 4,
                    "attributes": {
                        "NORMAL": 32,
                        "POSITION": 31,
                        "TANGENT": 33,
                        "TEXCOORD_0": 34
                    },
                    "indices": 30
                }
            ]
        },
        {
            "name": "Object003",
            "primitives": [
                {
                    "material": 0,
                    "mode": 4,
                    "attributes": {
                        "NORMAL": 37,
                        "POSITION": 36,
                        "TANGENT": 38,
                        "TEXCOORD_0": 39
                    },
                    "indices": 35
                }
            ]
        }
    ],
    "nodes": [
        {
            "name": "RootNode",
            "translation": [
                0.0,
                0.0,
                0.0
            ],
            "rotation": [
                0.0,
                0.0,
                0.0,
                1.0
            ],
            "scale": [
                1.0,
                1.0,
                1.0
            ],
            "children": [
                1
            ]
        },
        {
            "name": "group",
            "translation": [
                0.238066270947456,
                0.528154909610748,
                -0.693593144416809
            ],
            "rotation": [
                0.0,
                0.0,
                0.0,
                1.0
            ],
            "scale": [
                5.52670192718506,
                5.52670192718506,
                5.52670192718506
            ],
            "children": [
                2,
                3,
                4,
                5,
                6,
                7,
                8,
                9
            ]
        },
        {
            "name": "Box001",
            "translation": [
                0.0451463870704174,
                0.0,
                0.0635717362165451
            ],
            "rotation": [
                -0.70710676908493,
                -0.0,
                0.0,
                0.70710676908493
            ],
            "scale": [
                1.0,
                0.730422973632812,
                1.0
            ],
            "mesh": 0
        },
        {
            "name": "Sphere001",
            "translation": [
                -0.0771327018737793,
                -1.77635679969558e-17,
                0.303648322820663
            ],
            "rotation": [
                -0.70710676908493,
                -0.0,
                0.0,
                0.70710676908493
            ],
            "scale": [
                1.0,
                1.0,
                1.0
            ],
            "mesh": 1
        },
        {
            "name": "Rectangle001",
            "translation": [
                -0.0196440126746893,
                0.406008362770081,
                0.13164247572422
            ],
            "rotation": [
                -0.70710676908493,
                -0.0,
                0.0,
                0.70710676908493
            ],
            "scale": [
                1.0,
                1.0,
                1.0
            ],
            "mesh": 2
        },
        {
            "name": "Rectangle002",
            "translation": [
                -0.0709982663393021,
                0.224139750003815,
                0.224452972412109
            ],
            "rotation": [
                -0.500000059604645,
                -0.499999970197678,
                0.499999970197678,
                0.500000059604645
            ],
            "scale": [
                0.537324011325836,
                0.537324011325836,
                0.537324011325836
            ],
            "mesh": 3
        },
        {
            "name": "Cylinder001",
            "translation": [
                -0.0720028877258301,
                0.224139750003815,
                0.254445046186447
            ],
            "rotation": [
                -0.500000059604645,
                -0.499999970197678,
                0.499999970197678,
                0.500000059604645
            ],
            "scale": [
                0.579500019550323,
                0.579500019550323,
                1.67701303958893
            ],
            "mesh": 4
        },
        {
            "name": "Object001",
            "translation": [
                -0.0811862200498581,
                0.224139750003815,
                0.254445046186447
            ],
            "rotation": [
                -0.653281331062317,
                0.2705979347229,
                0.653281569480896,
                -0.270598292350769
            ],
            "scale": [
                0.709522008895874,
                0.709522008895874,
                1.67701303958893
            ],
            "mesh": 5
        },
        {
            "name": "Object002",
            "translation": [
                -0.0196440126746893,
                0.406008362770081,
                0.13164247572422
            ],
            "rotation": [
                -0.70710676908493,
                -0.0,
                0.0,
                0.70710676908493
            ],
            "scale": [
                1.0,
                1.0,
                1.0
            ],
            "mesh": 6
        },
        {
            "name": "Object003",
            "translation": [
                -0.0196440126746893,
                0.406008362770081,
                0.13164247572422
            ],
            "rotation": [
                -0.70710676908493,
                -0.0,
                0.0,
                0.70710676908493
            ],
            "scale": [
                1.0,
                1.0,
                1.0
            ],
            "mesh": 7
        }
    ]
}