# File produced by Open Asset Import Library (http://www.assimp.sf.net)
# (assimp v3.1.95221606)

mtllib pelota11.mtl

# vertex positions
v 13.103299 21.641680 -24.761742
v 13.103299 19.770658 -33.564205
v 9.523014 19.770658 -32.803192
v 6.561792 19.770658 -30.651739
v 4.731657 19.770658 -27.481852
v 4.349056 19.770658 -23.841631
v 5.480143 19.770658 -20.360508
v 7.929342 19.770658 -17.640396
v 11.273166 19.770658 -16.151632
v 14.933436 19.770658 -16.151632
v 18.277260 19.770658 -17.640400
v 20.726460 19.770658 -20.360512
v 21.857544 19.770658 -23.841637
v 21.474939 19.770658 -27.481855
v 19.644804 19.770658 -30.651743
v 16.683582 19.770658 -32.803192
v 13.103298 14.481110 -40.844643
v 6.561792 14.481110 -39.454205
v 1.151371 14.481110 -35.523300
v -2.192451 14.481110 -29.731628
v -2.891500 14.481110 -23.080618
v -0.824902 14.481110 -16.720287
v 3.650009 14.481110 -11.750398
v 9.759480 14.481110 -9.030289
v 16.447126 14.481110 -9.030291
v 22.556595 14.481110 -11.750402
v 27.031506 14.481110 -16.720295
v 29.098099 14.481110 -23.080626
v 28.399048 14.481110 -29.731636
v 25.055222 14.481110 -35.523308
v 19.644800 14.481110 -39.454208
v 13.103298 6.687646 -45.344200
v 4.731657 6.687646 -43.564754
v -2.192451 6.687646 -38.534092
v -6.471786 6.687646 -31.122066
v -7.366408 6.687646 -22.610285
v -4.721631 6.687646 -14.470508
v 1.005238 6.687646 -8.110178
v 8.823970 6.687646 -4.629057
v 17.382639 6.687646 -4.629059
v 25.201370 6.687646 -8.110186
v 30.928238 6.687646 -14.470516
v 33.573006 6.687646 -22.610294
v 32.678379 6.687646 -31.122078
v 28.399044 6.687646 -38.534103
v 21.474934 6.687646 -43.564758
v 13.103298 -2.262172 -46.284866
v 4.349054 -2.262172 -44.424095
v -2.891500 -2.262172 -39.163521
v -7.366410 -2.262172 -31.412748
v -8.301919 -2.262172 -22.511957
v -5.536271 -2.262172 -14.000176
v 0.452329 -2.262172 -7.349165
v 8.628395 -2.262172 -3.708948
v 17.578213 -2.262172 -3.708950
v 25.754280 -2.262172 -7.349173
v 31.742874 -2.262172 -14.000184
v 34.508518 -2.262172 -22.511969
v 33.573006 -2.262172 -31.412758
v 29.098095 -2.262172 -39.163528
v 21.857536 -2.262172 -44.424095
v 13.103298 -10.820841 -43.503986
v 5.480140 -10.820841 -41.883636
v -0.824905 -10.820841 -37.302750
v -4.721637 -10.820841 -30.553410
v -5.536273 -10.820841 -22.802639
v -3.127959 -10.820841 -15.390615
v 2.086887 -10.820841 -9.598945
v 9.206572 -10.820841 -6.429060
v 17.000036 -10.820841 -6.429060
v 24.119717 -10.820841 -9.598950
v 29.334560 -10.820841 -15.390624
v 31.742874 -10.820841 -22.802649
v 30.928230 -10.820841 -30.553419
v 27.031498 -10.820841 -37.302757
v 20.726452 -10.820841 -41.883636
v 13.103298 -17.508488 -37.482399
v 7.929340 -17.508488 -36.382641
v 3.650006 -17.508488 -33.273521
v 1.005234 -17.508488 -28.692638
v 0.452327 -17.508488 -23.432068
v 2.086887 -17.508488 -18.401409
v 5.626286 -17.508488 -14.470511
v 10.458529 -17.508488 -12.319061
v 15.748075 -17.508488 -12.319061
v 20.580318 -17.508488 -14.470515
v 24.119717 -17.508488 -18.401415
v 25.754272 -17.508488 -23.432074
v 25.201363 -17.508488 -28.692644
v 22.556587 -17.508488 -33.273529
v 18.277252 -17.508488 -36.382645
v 13.103299 -21.641680 -24.761742

# UV coordinates
vt 0.000000 1.000000
vt 0.000000 0.866667
vt 0.066667 0.866667
vt 0.066667 1.000000
vt 0.133333 0.866667
vt 0.133333 1.000000
vt 0.200000 0.866667
vt 0.200000 1.000000
vt 0.266667 0.866667
vt 0.266667 1.000000
vt 0.333333 0.866667
vt 0.333333 1.000000
vt 0.400000 0.866667
vt 0.400000 1.000000
vt 0.466667 0.866667
vt 0.466667 1.000000
vt 0.533333 0.866667
vt 0.533333 1.000000
vt 0.600000 0.866667
vt 0.600000 1.000000
vt 0.666667 0.866667
vt 0.666667 1.000000
vt 0.733333 0.866667
vt 0.733333 1.000000
vt 0.800000 0.866667
vt 0.800000 1.000000
vt 0.866667 0.866667
vt 0.866667 1.000000
vt 0.933333 0.866667
vt 0.933333 1.000000
vt 1.000000 0.866667
vt 0.000000 0.733333
vt 0.066667 0.733333
vt 0.133333 0.733333
vt 0.200000 0.733333
vt 0.266667 0.733333
vt 0.333333 0.733333
vt 0.400000 0.733333
vt 0.466667 0.733333
vt 0.533333 0.733333
vt 0.600000 0.733333
vt 0.666667 0.733333
vt 0.733333 0.733333
vt 0.800000 0.733333
vt 0.866667 0.733333
vt 0.933333 0.733333
vt 1.000000 0.733333
vt 0.000000 0.600000
vt 0.066667 0.600000
vt 0.133333 0.600000
vt 0.200000 0.600000
vt 0.266667 0.600000
vt 0.333333 0.600000
vt 0.400000 0.600000
vt 0.466667 0.600000
vt 0.533333 0.600000
vt 0.600000 0.600000
vt 0.666667 0.600000
vt 0.733333 0.600000
vt 0.800000 0.600000
vt 0.866667 0.600000
vt 0.933333 0.600000
vt 1.000000 0.600000
vt 0.000000 0.466667
vt 0.066667 0.466667
vt 0.133333 0.466667
vt 0.200000 0.466667
vt 0.266667 0.466667
vt 0.333333 0.466667
vt 0.400000 0.466667
vt 0.466667 0.466667
vt 0.533333 0.466667
vt 0.600000 0.466667
vt 0.666667 0.466667
vt 0.733333 0.466667
vt 0.800000 0.466667
vt 0.866667 0.466667
vt 0.933333 0.466667
vt 1.000000 0.466667
vt 0.000000 0.333333
vt 0.066667 0.333333
vt 0.133333 0.333333
vt 0.200000 0.333333
vt 0.266667 0.333333
vt 0.333333 0.333333
vt 0.400000 0.333333
vt 0.466667 0.333333
vt 0.533333 0.333333
vt 0.600000 0.333333
vt 0.666667 0.333333
vt 0.733333 0.333333
vt 0.800000 0.333333
vt 0.866667 0.333333
vt 0.933333 0.333333
vt 1.000000 0.333333
vt 0.000000 0.200000
vt 0.066667 0.200000
vt 0.133333 0.200000
vt 0.200000 0.200000
vt 0.266667 0.200000
vt 0.333333 0.200000
vt 0.400000 0.200000
vt 0.466667 0.200000
vt 0.533333 0.200000
vt 0.600000 0.200000
vt 0.666667 0.200000
vt 0.733333 0.200000
vt 0.800000 0.200000
vt 0.866667 0.200000
vt 0.933333 0.200000
vt 1.000000 0.200000
vt 0.000000 0.066667
vt 0.066667 0.066667
vt 0.133333 0.066667
vt 0.200000 0.066667
vt 0.266667 0.066667
vt 0.333333 0.066667
vt 0.400000 0.066667
vt 0.466667 0.066667
vt 0.533333 0.066667
vt 0.600000 0.066667
vt 0.666667 0.066667
vt 0.733333 0.066667
vt 0.800000 0.066667
vt 0.866667 0.066667
vt 0.933333 0.066667

# vertex normals
vn 0.000000 1.000000 -0.000000
vn -0.000000 0.903149 -0.429327
vn -0.174623 0.903149 -0.392210
vn -0.319052 0.903149 -0.287276
vn -0.408314 0.903149 -0.132669
vn -0.426975 0.903149 0.044877
vn -0.371808 0.903149 0.214663
vn -0.252352 0.903149 0.347333
vn -0.089262 0.903149 0.419945
vn 0.089262 0.903149 0.419945
vn 0.252352 0.903149 0.347333
vn 0.371808 0.903149 0.214663
vn 0.426975 0.903149 0.044877
vn 0.408314 0.903149 -0.132669
vn 0.319052 0.903149 -0.287276
vn 0.174623 0.903149 -0.392210
vn -0.000000 0.655701 -0.755021
vn -0.307095 0.655700 -0.689746
vn -0.561090 0.655700 -0.505208
vn -0.718068 0.655701 -0.233314
vn -0.750885 0.655701 0.078921
vn -0.653867 0.655700 0.377511
vn -0.443790 0.655701 0.610825
vn -0.156978 0.655701 0.738522
vn 0.156978 0.655701 0.738522
vn 0.443790 0.655700 0.610825
vn 0.653868 0.655701 0.377510
vn 0.750885 0.655700 0.078921
vn 0.718068 0.655701 -0.233315
vn 0.561090 0.655700 -0.505208
vn 0.307094 0.655701 -0.689746
vn -0.000000 0.301213 -0.953557
vn -0.387847 0.301213 -0.871117
vn -0.708631 0.301213 -0.638054
vn -0.906886 0.301213 -0.294665
vn -0.948333 0.301213 0.099674
vn -0.825804 0.301213 0.476779
vn -0.560486 0.301213 0.771444
vn -0.198255 0.301213 0.932719
vn 0.198256 0.301213 0.932719
vn 0.560487 0.301213 0.771444
vn 0.825805 0.301213 0.476778
vn 0.948333 0.301213 0.099673
vn 0.906886 0.301213 -0.294666
vn 0.708631 0.301213 -0.638054
vn 0.387846 0.301213 -0.871118
vn -0.000000 -0.101777 -0.994807
vn -0.404625 -0.101777 -0.908801
vn -0.739286 -0.101777 -0.665656
vn -0.946118 -0.101777 -0.307412
vn -0.989358 -0.101777 0.103986
vn -0.861528 -0.101777 0.497404
vn -0.584733 -0.101777 0.804816
vn -0.206832 -0.101777 0.973068
vn 0.206832 -0.101777 0.973068
vn 0.584733 -0.101777 0.804816
vn 0.861528 -0.101777 0.497403
vn 0.989358 -0.101777 0.103985
vn 0.946118 -0.101777 -0.307413
vn 0.739286 -0.101777 -0.665656
vn 0.404624 -0.101777 -0.908802
vn -0.000000 -0.488424 -0.872606
vn -0.354921 -0.488424 -0.797166
vn -0.648473 -0.488424 -0.583887
vn -0.829898 -0.488424 -0.269650
vn -0.867826 -0.488424 0.091212
vn -0.755699 -0.488424 0.436303
vn -0.512905 -0.488424 0.705953
vn -0.181425 -0.488424 0.853538
vn 0.181425 -0.488424 0.853538
vn 0.512905 -0.488424 0.705953
vn 0.755699 -0.488424 0.436303
vn 0.867826 -0.488424 0.091212
vn 0.829898 -0.488424 -0.269650
vn 0.648473 -0.488424 -0.583888
vn 0.354921 -0.488424 -0.797166
vn -0.000000 -0.823046 -0.567975
vn -0.231016 -0.823046 -0.518871
vn -0.422087 -0.823046 -0.380049
vn -0.540176 -0.823046 -0.175514
vn -0.564863 -0.823046 0.059370
vn -0.491880 -0.823046 0.283987
vn -0.333847 -0.823046 0.459501
vn -0.118088 -0.823046 0.555563
vn 0.118089 -0.823046 0.555563
vn 0.333847 -0.823046 0.459501
vn 0.491881 -0.823046 0.283987
vn 0.564863 -0.823046 0.059369
vn 0.540176 -0.823046 -0.175514
vn 0.422087 -0.823046 -0.380049
vn 0.231016 -0.823046 -0.518871
vn 0.000000 -1.000000 -0.000000

# Mesh
g Sphere001
usemtl DefaultMaterial
f 1/1/1 2/2/2 3/3/3
f 1/4/1 3/3/3 4/5/4
f 1/6/1 4/5/4 5/7/5
f 1/8/1 5/7/5 6/9/6
f 1/10/1 6/9/6 7/11/7
f 1/12/1 7/11/7 8/13/8
f 1/14/1 8/13/8 9/15/9
f 1/16/1 9/15/9 10/17/10
f 1/18/1 10/17/10 11/19/11
f 1/20/1 11/19/11 12/21/12
f 1/22/1 12/21/12 13/23/13
f 1/24/1 13/23/13 14/25/14
f 1/26/1 14/25/14 15/27/15
f 1/28/1 15/27/15 16/29/16
f 1/30/1 16/29/16 2/31/2
f 2/2/2 17/32/17 18/33/18 3/3/3
f 4/5/4 3/3/3 18/33/18 19/34/19
f 5/7/5 4/5/4 19/34/19 20/35/20
f 6/9/6 5/7/5 20/35/20 21/36/21
f 7/11/7 6/9/6 21/36/21 22/37/22
f 8/13/8 7/11/7 22/37/22 23/38/23
f 24/39/24 9/15/9 8/13/8 23/38/23
f 25/40/25 10/17/10 9/15/9 24/39/24
f 26/41/26 11/19/11 10/17/10 25/40/25
f 26/41/26 27/42/27 12/21/12 11/19/11
f 27/42/27 28/43/28 13/23/13 12/21/12
f 28/43/28 29/44/29 14/25/14 13/23/13
f 29/44/29 30/45/30 15/27/15 14/25/14
f 15/27/15 30/45/30 31/46/31 16/29/16
f 16/29/16 31/46/31 17/47/17 2/31/2
f 17/32/17 32/48/32 33/49/33 18/33/18
f 18/33/18 33/49/33 34/50/34 19/34/19
f 20/35/20 19/34/19 34/50/34 35/51/35
f 21/36/21 20/35/20 35/51/35 36/52/36
f 22/37/22 21/36/21 36/52/36 37/53/37
f 38/54/38 23/38/23 22/37/22 37/53/37
f 39/55/39 24/39/24 23/38/23 38/54/38
f 40/56/40 25/40/25 24/39/24 39/55/39
f 41/57/41 26/41/26 25/40/25 40/56/40
f 42/58/42 27/42/27 26/41/26 41/57/41
f 42/58/42 43/59/43 28/43/28 27/42/27
f 43/59/43 44/60/44 29/44/29 28/43/28
f 29/44/29 44/60/44 45/61/45 30/45/30
f 30/45/30 45/61/45 46/62/46 31/46/31
f 31/46/31 46/62/46 32/63/32 17/47/17
f 32/48/32 47/64/47 48/65/48 33/49/33
f 33/49/33 48/65/48 49/66/49 34/50/34
f 34/50/34 49/66/49 50/67/50 35/51/35
f 36/52/36 35/51/35 50/67/50 51/68/51
f 52/69/52 37/53/37 36/52/36 51/68/51
f 53/70/53 38/54/38 37/53/37 52/69/52
f 54/71/54 39/55/39 38/54/38 53/70/53
f 55/72/55 40/56/40 39/55/39 54/71/54
f 56/73/56 41/57/41 40/56/40 55/72/55
f 57/74/57 42/58/42 41/57/41 56/73/56
f 58/75/58 43/59/43 42/58/42 57/74/57
f 43/59/43 58/75/58 59/76/59 44/60/44
f 44/60/44 59/76/59 60/77/60 45/61/45
f 45/61/45 60/77/60 61/78/61 46/62/46
f 46/62/46 61/78/61 47/79/47 32/63/32
f 47/64/47 62/80/62 63/81/63 48/65/48
f 48/65/48 63/81/63 64/82/64 49/66/49
f 49/66/49 64/82/64 65/83/65 50/67/50
f 65/83/65 66/84/66 51/68/51 50/67/50
f 67/85/67 52/69/52 51/68/51 66/84/66
f 68/86/68 53/70/53 52/69/52 67/85/67
f 69/87/69 54/71/54 53/70/53 68/86/68
f 70/88/70 55/72/55 54/71/54 69/87/69
f 71/89/71 56/73/56 55/72/55 70/88/70
f 72/90/72 57/74/57 56/73/56 71/89/71
f 58/75/58 57/74/57 72/90/72 73/91/73
f 59/76/59 58/75/58 73/91/73 74/92/74
f 59/76/59 74/92/74 75/93/75 60/77/60
f 60/77/60 75/93/75 76/94/76 61/78/61
f 61/78/61 76/94/76 62/95/62 47/79/47
f 62/80/62 77/96/77 78/97/78 63/81/63
f 63/81/63 78/97/78 79/98/79 64/82/64
f 79/98/79 80/99/80 65/83/65 64/82/64
f 80/99/80 81/100/81 66/84/66 65/83/65
f 81/100/81 82/101/82 67/85/67 66/84/66
f 83/102/83 68/86/68 67/85/67 82/101/82
f 84/103/84 69/87/69 68/86/68 83/102/83
f 85/104/85 70/88/70 69/87/69 84/103/84
f 86/105/86 71/89/71 70/88/70 85/104/85
f 72/90/72 71/89/71 86/105/86 87/106/87
f 73/91/73 72/90/72 87/106/87 88/107/88
f 74/92/74 73/91/73 88/107/88 89/108/89
f 75/93/75 74/92/74 89/108/89 90/109/90
f 75/93/75 90/109/90 91/110/91 76/94/76
f 76/94/76 91/110/91 77/111/77 62/95/62
f 92/112/92 78/97/78 77/96/77
f 92/113/92 79/98/79 78/97/78
f 92/114/92 80/99/80 79/98/79
f 92/115/92 81/100/81 80/99/80
f 92/116/92 82/101/82 81/100/81
f 92/117/92 83/102/83 82/101/82
f 92/118/92 84/103/84 83/102/83
f 92/119/92 85/104/85 84/103/84
f 92/120/92 86/105/86 85/104/85
f 92/121/92 87/106/87 86/105/86
f 92/122/92 88/107/88 87/106/87
f 92/123/92 89/108/89 88/107/88
f 92/124/92 90/109/90 89/108/89
f 92/125/92 91/110/91 90/109/90
f 92/126/92 77/111/77 91/110/91
