{
    "asset": {
        "version": "2.0",
        "generator": "Open Asset Import Library (assimp v3.1.95221606)"
    },
    "accessors": [
        {
            "bufferView": 0,
            "byteOffset": 0,
            "componentType": 5126,
            "count": 126,
            "type": "VEC3",
            "max": [
                21.40522003173828,
                21.52312469482422,
                21.641679763793947
            ],
            "min": [
                -21.40521812438965,
                -21.052793502807618,
                -21.641679763793947
            ]
        },
        {
            "bufferView": 1,
            "byteOffset": 0,
            "componentType": 5126,
            "count": 126,
            "type": "VEC3",
            "max": [
                0.9893574714660645,
                0.9948071241378784,
                1.0
            ],
            "min": [
                -0.9893574714660645,
                -0.9730682969093323,
                -1.0
            ]
        },
        {
            "bufferView": 2,
            "byteOffset": 0,
            "componentType": 5126,
            "count": 126,
            "type": "VEC4",
            "max": [
                1.0,
                1.0,
                1.0,
                1.0
            ],
            "min": [
                -0.9997661113739014,
                -0.99465411901474,
                -0.9979566335678101,
                -0.9997661113739014
            ]
        },
        {
            "bufferView": 3,
            "byteOffset": 0,
            "componentType": 5126,
            "count": 126,
            "type": "VEC2",
            "max": [
                1.0,
                0.9333333373069763
            ],
            "min": [
                0.0,
                0.0
            ]
        },
        {
            "bufferView": 4,
            "byteOffset": 0,
            "componentType": 5123,
            "count": 540,
            "type": "SCALAR",
            "max": [
                125.0
            ],
            "min": [
                0.0
            ]
        }
    ],
    "buffers": [
        {
            "byteLength": 7128,
            "uri": "pelota10.bin"
        }
    ],
    "bufferViews": [
        {
            "buffer": 0,
            "byteOffset": 0,
            "byteLength": 1512,
            "target": 34962
        },
        {
            "buffer": 0,
            "byteOffset": 1512,
            "byteLength": 1512,
            "target": 34962
        },
        {
            "buffer": 0,
            "byteOffset": 3024,
            "byteLength": 2016,
            "target": 34962
        },
        {
            "buffer": 0,
            "byteOffset": 5040,
            "byteLength": 1008,
            "target": 34962
        },
        {
            "buffer": 0,
            "byteOffset": 6048,
            "byteLength": 1080,
            "target": 34963
        }
    ],
    "materials": [
        {
            "name": "DefaultMaterial",
            "pbrMetallicRoughness": {
                "baseColorFactor": [
                    0.6000000238418579,
                    0.6000000238418579,
                    0.6000000238418579,
                    1.0
                ],
                "metallicFactor": 0.0
            }
        }
    ],
    "meshes": [
        {
            "name": "Sphere001",
            "primitives": [
                {
                    "mode": 4,
                    "material": 0,
                    "indices": 4,
                    "attributes": {
                        "POSITION": 0,
                        "NORMAL": 1,
                        "TANGENT": 2,
                        "TEXCOORD_0": 3
                    }
                }
            ]
        }
    ],
    "nodes": [
        {
            "name": "RootNode",
            "matrix": [
                0.009999999776482582,
                0.0,
                0.0,
                0.0,
                0.0,
                0.009999999776482582,
                0.0,
                0.0,
                0.0,
                0.0,
                0.009999999776482582,
                0.0,
                0.0,
                0.0,
                0.0,
                1.0
            ],
            "children": [
                1
            ]
        },
        {
            "name": "Sphere001",
            "matrix": [
                1.0,
                0.0,
                0.0,
                0.0,
                0.0,
                6.123234262925839e-17,
                -1.0,
                0.0,
                0.0,
                1.0,
                6.123234262925839e-17,
                0.0,
                13.103299140930176,
                0.0,
                -24.761741638183595,
                1.0
            ],
            "mesh": 0
        }
    ],
    "scenes": [
        {
            "nodes": [
                0
            ]
        }
    ],
    "scene": 0
}